<svg xmlns="http://www.w3.org/2000/svg" xmlns:xlink="http://www.w3.org/1999/xlink" version="1.1" id="Layer_1" x="0px" y="0px" enable-background="new 0 0 792 612" xml:space="preserve" viewBox="119.33 404.77 341.15 102.46">
<g>
</g>
<g>
	<g id="XMLID_1_">
		<g>
			<path fill="#FFFFFF" d="M360.136,470.597c0,0.781,0,1.563,0,2.345c-1.223,1.441-2.471,2.878-3.675,4.343     c-0.721,0.88-1.248,1.974-2.094,2.692c-3.574,3.039-7.205,6.016-10.879,8.934c-2.646,2.102-5.481,3.96-8.052,6.149     c-1.706,1.465-3.286,2.94-5.656,2.993c-0.213,0.006-0.47,0.081-0.633,0.214c-1.129,0.933-2.201,0.689-3.374,0.035     c-0.452-0.249-1.229-0.272-1.693-0.047c-1.869,0.903-3.674,1.945-5.644,3.011c-0.038,2.079,1.58,3.799,2.49,5.964     c-14.291,0-28.369,0-42.497,0c0.363-2.964,2.458-5.494,2-8.291c-1.06,0-2.069,0.069-3.06-0.035     c-0.489-0.052-1.035-0.33-1.404-0.677c-0.84-0.788-1.593-1.251-2.878-0.933c-3.53,0.892-6.779,0.116-9.601-2.275     c-2.038-1.726-4.02-3.521-6.058-5.24c-1.555-1.314-3.198-2.513-4.728-3.855c-1.593-1.401-3.041-2.982-4.653-4.372     c-2.169-1.87-4.383-3.671-5.882-6.212c-0.853-1.442-1.875-2.779-2.791-4.181c-0.289-0.452-0.501-0.961-0.721-1.453     c-0.207-0.476-0.37-0.967-0.552-1.453c0-0.389,0-0.776,0-1.17c0.194-0.267,0.376-0.55,0.596-0.793     c1.461-1.599,2.916-3.202,4.408-4.76c0.552-0.573,1.292-0.967,1.819-1.558c0.909-1.036,1.687-2.188,2.583-3.23     c1.95-2.253,3.819-4.604,6.854-5.46c1.047-0.302,2.063-0.765,3.035-1.269c0.464-0.243,0.947-0.694,1.141-1.169     c0.596-1.453,1.361-2.768,2.584-3.746c2.145-1.714,4.201-3.59,6.502-5.049c3.763-2.392,7.914-3.816,12.416-3.48     c1.975,0.146,3.775,0.15,5.368-1.238c0.42-0.371,1.01-0.521,1.505-0.812c1.411-0.821,2.464-1.835,2.327-3.74     c-0.082-1.07,0.219-2.171,0.201-3.26c-0.006-0.602-0.201-1.262-0.496-1.789c-1.141-2.061-1.605-4.157-0.702-6.444     c0.125-0.313,0.1-0.712,0.088-1.064c-0.05-1.616-0.138-3.226-0.157-4.841c-0.006-0.272,0.282-0.538,0.376-0.828     c0.226-0.66,0.383-1.338,0.64-1.986c0.106-0.266,0.533-0.677,0.564-0.654c0.853,0.585,0.865-0.179,0.997-0.648     c0.357-1.297,1.041-2.321,2.27-2.883c1.216-0.562,2.458-1.077,3.693-1.609c0.765,0,1.524,0,2.289,0     c0.508,0.249,1.028,0.469,1.511,0.752c0.978,0.567,2.107,0.996,2.853,1.795c1.273,1.378,2.596,2.854,3.336,4.551     c0.696,1.604,1.179,3.469,0.777,5.362c-0.075,0.353-0.069,0.851,0.119,1.123c1.593,2.327,0.928,4.626,0.038,6.954     c-0.163,0.416-0.257,0.892-0.238,1.337c0.069,1.627,0.157,3.26,0.326,4.881c0.05,0.48,0.27,1.065,0.608,1.378     c0.658,0.608,1.436,1.089,2.195,1.569c1.286,0.805,2.59,1.587,3.9,2.351c0.815,0.48,1.53,0.996,2.665,0.822     c1.586-0.237,3.242-0.18,4.854-0.034c2.866,0.248,5.65,0.955,8.29,2.13c0.777,0.348,1.442,0.944,2.201,1.332     c2.527,1.279,4.17,3.439,5.669,5.767c0.733,1.158,1.267,2.6,2.282,3.388c1.813,1.396,3.875,2.495,5.926,3.531     c1.95,0.99,3.342,2.443,4.515,4.285c0.984,1.54,2.132,3.022,3.442,4.278c2.101,2.026,3.888,4.221,4.973,6.983     C359.434,469.78,359.835,470.168,360.136,470.597z M338.86,472.275c0.15-0.556,0.42-1.349,0.175-1.673     c-0.313-0.417-1.11-0.695-1.655-0.632c-1.988,0.227-3.756-0.249-5.437-1.303c-1.455-0.903-1.725-0.805-2.552,0.735     c-0.803,1.488-1.423,3.104-2.396,4.453c-1.712,2.362-3.656,4.545-5.456,6.844c-0.533,0.683-0.909,1.499-1.373,2.281     c1.198,1.175,2.433,1.325,3.787,1.007c0.345-0.081,0.778-0.168,1.072-0.034c1.217,0.567,2.383,1.245,3.593,1.823     c0.27,0.134,0.74,0.197,0.953,0.047c0.608-0.44,1.154-0.973,1.687-1.512c1.536-1.558,3.06-3.12,4.571-4.695     c0.903-0.943,1.611-1.98,1.888-3.335C338,474.922,338.509,473.619,338.86,472.275z M277.814,483.438     c0.194-0.029,0.533-0.451,0.489-0.573c-0.376-1.071-0.364-2.246-1.323-3.144c-1.361-1.28-2.684-2.658-3.744-4.198     c-1.43-2.084-2.603-4.348-3.844-6.56c-0.527-0.933-1.091-1.297-2.208-0.927c-1.756,0.585-3.574,0.961-5.368,1.431     c-0.025-0.093-0.044-0.191-0.069-0.284c-0.345,0-0.684,0-1.028,0c-1.336,0-1.486,0.209-1.123,1.5     c0.821,2.895,1.511,5.854,3.994,7.862c0.145,0.116,0.22,0.307,0.339,0.463c1.191,1.547,2.358,3.121,3.587,4.639     c1.317,1.627,3.493,1.627,4.496,0.932c0.947-0.654,1.887-0.856,2.972-0.874C275.933,483.693,276.88,483.583,277.814,483.438z"/>
		</g>
		<g>
		</g>
	</g>
	<g>
		<path fill="#FFFFFF" d="M142.013,452.89c0,0.24,0,0.42,0,0.66c0,0,0,0.06,0,0.12c0,0.06,0.06,0.12-0.06,0.12    c-0.12,0-0.24,0-0.42,0c-0.54,0-1.08,0-1.68,0c-0.54,0-1.08,0-1.68,0c-0.24,0-0.54,0-0.84,0c-0.06,0-0.12,0-0.18,0    c-0.12,0-0.06-0.061-0.06-0.12c0-0.12,0-0.181,0-0.301c0-0.84,0-1.68,0-2.52c0-0.42,0-0.84,0-1.26c0-0.24,0-0.42,0-0.66    c0-0.18-0.12-0.06-0.24-0.06s-0.24,0-0.3,0c-1.32,0-2.58,0-3.84,0c-0.18,0-0.3,0-0.48,0c-0.12,0-0.06,0.18-0.06,0.239    c0,0.061,0,0.181,0,0.24c0,0.36,0,0.78,0,1.14c0,0.9,0,1.801,0,2.7c0,2.521,0,4.979,0,7.5c0,0.06,0,0.18,0,0.24    c0,0.119-0.06,0.239,0.06,0.239c0.12,0,0.24,0,0.3,0c0.24,0,0.42,0,0.66,0c0.42,0,0.84,0,1.26,0c0.84,0,1.74,0,2.58,0    c1.86,0,3.54,0.96,4.439,2.641c0.48,0.96,0.54,2.279,0.54,3.479c0,0.6,0,1.2,0,1.74c0,3.539,0,7.14,0,10.679    c0,1.801-0.06,3.24-1.5,4.62c-1.56,1.5-3.24,1.38-5.16,1.38c-1.08,0-2.16,0-3.3,0c-0.84,0-1.56-0.24-2.34-0.66    c-1.5-0.899-2.4-2.52-2.4-4.26c0-3.359,0-6.72,0-10.079c0-0.24,0-0.42,0-0.66c0-0.06,0-0.06,0-0.12c0-0.06-0.06-0.12-0.06-0.12    c0-0.06,0-0.06,0.06-0.06s0.18,0,0.3,0c0.42,0,0.84,0,1.26,0c0.84,0,1.68,0,2.52,0c0.24,0,0.42,0,0.66,0c0,0,0.06,0,0.12,0    c0.12,0,0,0.12,0,0.18c0,0.18,0,0.3,0,0.42c0,0.54,0,1.08,0,1.62c0,1.08,0,2.16,0,3.24c0,1.859,0,3.659,0,5.52    c0,0.18,0.18,0.06,0.3,0.06s0.24,0,0.36,0c0.24,0,0.48,0,0.72,0c0.48,0,0.96,0,1.44,0s0.96,0,1.44,0c0.12,0,0.24,0,0.36,0    c0.06,0,0.12,0,0.18,0s0.12,0.12,0.12,0c0-0.239,0-0.42,0-0.659c0-3.42,0-6.84,0-10.26c0-0.84,0-1.681,0-2.58c0-0.18,0-0.42,0-0.6    c0-0.12,0-0.24,0-0.301c0-0.06,0.12-0.3,0-0.3c-0.48,0-0.96,0-1.44,0c-1.26,0-3.66,0.18-4.979-0.24    c-1.38-0.479-2.52-1.56-3.06-2.939c-0.3-0.78-0.3-1.56-0.3-2.34c0-1.5,0-2.939,0-4.439c0-2.221,0-4.5,0-6.72    c0-1.681,0.24-2.94,1.56-4.08c1.32-1.26,2.76-1.32,4.439-1.32c1.26,0,4.02-0.24,5.34,0.24c1.68,0.54,2.94,1.979,3.24,3.66    c0.12,0.42,0.12,1.739,0.12,2.999C142.013,451.81,142.013,452.59,142.013,452.89z"/>
		<path fill="#FFFFFF" d="M160.313,483.068c-0.84,1.68-2.52,2.7-4.319,2.7c-0.96,0-1.86,0-2.76,0s-1.8,0.06-2.76-0.061    c-1.92-0.24-3.54-1.56-4.08-3.42c-0.42-1.319-0.24-4.079-0.24-5.34c0-1.92,0-3.84,0-5.76c0-7.439,0-14.819,0-22.259    c0-1.62,0-3.24,0-4.92c1.62,0,3.3,0,4.92,0c0,6.18,0,12.3,0,18.419v4.92v13.5h4.92v-13.5v-4.92c0-6.119,0-12.239,0-18.419    c1.62,0,3.24,0,4.859,0c0,7.439,0,14.88,0,22.259c0,3.721,0,7.44,0,11.16C160.853,478.988,161.153,481.509,160.313,483.068z"/>
		<path fill="#FFFFFF" d="M179.452,451.33c0,2.579,0,5.22,0,7.799c0,1.62,0,3.181,0,4.8c0,1.08,0,2.101-0.42,3.12    c-0.84,1.74-2.58,2.88-4.5,2.88c-0.84,0-1.74,0-2.58,0c-0.42,0-0.9,0-1.32,0c-0.18,0-0.42,0-0.66,0c-0.06,0-0.18,0-0.3,0    s-0.06,0.061-0.06,0.12c0,0.42,0,0.84,0,1.26c0,0.78,0,1.62,0,2.4c0,1.62,0,3.239,0,4.859c0,1.68,0,3.3,0,4.92    c0,0.36,0,0.78,0,1.2c0,0.18,0,0.42,0,0.6c0,0.12,0,0.24,0,0.3c0,0.061,0,0.12,0,0.181c0,0,0.12,0.12,0,0.12h-0.06    c-0.12,0-0.24,0-0.3,0c-0.24,0-0.48,0-0.66,0c-0.42,0-0.9,0-1.32,0s-0.84,0-1.32,0c-0.18,0-0.42,0-0.6,0c-0.12,0-0.24,0-0.36,0    c-0.06,0-0.12,0-0.18,0c0,0,0,0-0.06,0c-0.12,0,0-0.12,0-0.181c0-0.42,0-0.84,0-1.26c0-9.06,0-18.119,0-27.119    c0-2.399,0-4.8,0-7.199c0-1.26,0-2.46,0-3.72c0-0.601,0-1.261,0-1.86c0-0.06,0-0.18,0-0.24c0-0.06-0.12-0.18,0-0.18s0.3,0,0.42,0    c2.22,0,4.5,0,6.78,0c2.34,0,4.44-0.42,6.3,1.74C179.752,447.55,179.452,449.35,179.452,451.33z M174.532,449.05h-4.92v15.959    h4.92V449.05z"/>
		<path fill="#FFFFFF" d="M197.512,485.828h-9.839h-4.92V444.07h4.92h9.839v4.919h-9.839v13.5h8.58v4.92h-8.58v13.499h9.839V485.828    z"/>
		<path fill="#FFFFFF" d="M215.991,463.569c-0.36,2.34-2.46,4.14-4.859,4.14c0.66,2.88,1.32,7.319,1.979,10.199    c0.36,1.44,0.66,3.42,1.02,4.86c0.12,0.72,0.3,1.439,0.48,2.16c0.06,0.18,0.06,0.359,0.12,0.539c0,0.061,0.06,0.181,0.06,0.24    c0.06,0.12-0.12,0.12-0.18,0.12c-0.36,0-0.72,0-1.08,0c-0.78,0-1.5,0-2.22,0c-0.36,0-0.72,0-1.14,0c-0.06,0-0.18,0-0.24,0    c-0.12,0-0.06-0.24-0.06-0.3c-0.06-0.18-0.12-0.36-0.18-0.54c-0.3-1.44-0.66-3.36-0.96-4.8c-0.66-2.88-1.32-7.38-1.979-10.26    c-0.12-0.42-0.24-0.899-0.3-1.38c-0.06-0.18-0.12-0.42-0.18-0.66c0-0.06-0.06-0.12-0.06-0.18c-0.12-0.54,0,0.54,0,0.84    c0,0.48,0,0.9,0,1.32c0,0.899,0,1.8,0,2.64c0,3.54,0,9.239,0,12.72c0,0.239,0.24,0.6-0.12,0.6c-0.06,0-0.12,0-0.18,0    c-0.12,0-0.24,0-0.36,0c-0.18,0-0.42,0-0.66,0c-0.42,0-0.84,0-1.32,0c-0.42,0-0.9,0-1.32,0c-0.24,0-0.42,0-0.66,0    c-0.06,0-0.12,0-0.18,0h-0.06c0,0,0,0-0.06,0c-0.12,0,0-0.12,0-0.18c0-0.12,0-0.24,0-0.36c0-0.42,0-0.84,0-1.26    c0-3.479,0-9.119,0-12.6c0-5.88,0-8.399,0-14.339c0-2.341,0-5.88,0-8.22c0-1.2,0-2.4,0-3.601c0-0.3,0-0.6,0-0.899    c0-0.061,0-0.18,0-0.24c0,0,0-0.06,0.06-0.06c0.18,0,0.3,0,0.42,0c0.24,0,0.48,0,0.78,0c0.48,0,1.02,0,1.5,0c1.08,0,2.1,0,3.12,0    c1.38,0,2.76,0,4.14,0c1.44,0.06,2.76,0.72,3.66,1.859c0.96,1.2,1.08,2.46,1.08,3.9c0,1.739,0,3.42,0,5.159c0,1.74,0,4.74,0,6.48    c0,1.02,0-1.32,0-0.36C216.051,461.949,216.111,462.729,215.991,463.569z M211.132,448.989h-4.92v13.8h4.92V448.989z"/>
		<path fill="#FFFFFF" d="M235.191,480.969c0,2.699-2.16,4.92-4.86,4.92h-4.92h-4.92V444.19h4.92h4.92c2.7,0,4.86,2.159,4.86,4.859    v10.5c0,2.699-2.16,4.859-4.86,4.859c2.7,0,4.86,2.22,4.86,4.92v3.06V480.969z M230.332,449.05h-4.92v12.6h4.92V449.05z     M230.332,467.469h-4.92v13.5h4.92V467.469z"/>
	</g>
	<g>
		<path fill="#FFFFFF" d="M378.954,448.931h-9.779v13.5h8.58v4.919h-8.58v13.5v4.92h-4.92v-41.759h4.92h9.779V448.931z"/>
		<path fill="#FFFFFF" d="M396.954,481.749c-0.36,2.221-2.16,3.9-4.38,4.08c-1.08,0.12-2.16,0.061-3.24,0.061s-2.1,0.119-3.18-0.12    c-2.28-0.54-3.84-2.521-3.84-4.8c0-8.7,0-17.399,0-26.159c0-1.2-0.18-5.819,0.18-7.14c0.54-1.92,2.28-3.3,4.32-3.48    c1.02-0.119,2.1-0.06,3.18-0.06c1.08,0,2.16-0.12,3.24,0.12c2.22,0.54,3.779,2.52,3.779,4.8c0,8.699,0,17.399,0,26.099    C397.014,475.93,397.074,480.97,396.954,481.749z M392.094,449.051h-4.86v31.919h4.86V449.051z"/>
		<path fill="#FFFFFF" d="M414.953,481.749c-0.359,2.221-2.159,3.9-4.379,4.08c-1.08,0.12-2.16,0.061-3.24,0.061    s-2.1,0.119-3.18-0.12c-2.28-0.54-3.84-2.521-3.84-4.8c0-8.7,0-17.399,0-26.159c0-1.2-0.18-5.819,0.18-7.14    c0.54-1.92,2.28-3.3,4.32-3.48c1.02-0.119,2.1-0.06,3.18-0.06s2.16-0.12,3.24,0.12c2.219,0.54,3.779,2.52,3.779,4.8    c0,8.699,0,17.399,0,26.099C415.014,475.93,415.074,480.97,414.953,481.749z M410.094,449.051h-4.859v31.919h4.859V449.051z"/>
		<path fill="#FFFFFF" d="M433.553,450.73c0,4.8,0,9.54,0,14.279c0,4.8,0,9.54,0,14.279c0,1.261,0.06,2.46-0.42,3.66    c-0.54,1.14-1.2,1.92-2.34,2.46c-1.141,0.54-2.22,0.48-3.42,0.48h-0.061c-1.199,0-2.399,0-3.6,0h-4.92v-4.92c0-0.78,0-1.62,0-2.46    v-24.539c0-1.62,0-3.24,0-4.86v-4.92h4.92c0.84,0,1.62,0,2.46,0c0.36,0,0.78,0,1.14,0c1.2,0,2.34-0.06,3.48,0.48    c1.2,0.6,1.92,1.38,2.399,2.64C433.612,448.511,433.553,449.591,433.553,450.73z M428.633,449.11c-1.68,0-3.3,0-4.92,0    c0,1.62,0,3.24,0,4.86c0,8.22,0,16.379,0,24.539c0,0.84,0,1.68,0,2.46c1.62,0,3.24,0,4.92,0    C428.633,470.35,428.633,459.73,428.633,449.11z"/>
		<path fill="#FFFFFF" d="M452.333,452.891c0,0.24,0,0.42,0,0.66c0,0,0,0.06,0,0.12c0,0.06,0.06,0.119-0.061,0.119s-0.24,0-0.42,0    c-0.54,0-1.08,0-1.68,0c-0.54,0-1.08,0-1.68,0c-0.24,0-0.54,0-0.841,0c-0.06,0-0.119,0-0.18,0c-0.12,0-0.06-0.06-0.06-0.119    c0-0.12,0-0.181,0-0.301c0-0.84,0-1.68,0-2.52c0-0.42,0-0.84,0-1.26c0-0.24,0-0.42,0-0.66c0-0.18-0.12-0.06-0.24-0.06    s-0.24,0-0.3,0c-1.32,0-2.58,0-3.84,0c-0.18,0-0.3,0-0.48,0c-0.12,0-0.06,0.18-0.06,0.239c0,0.061,0,0.181,0,0.24    c0,0.36,0,0.78,0,1.14c0,0.9,0,1.801,0,2.7c0,2.52,0,4.979,0,7.5c0,0.06,0,0.18,0,0.24c0,0.119-0.061,0.239,0.06,0.239    s0.24,0,0.301,0c0.239,0,0.42,0,0.659,0c0.42,0,0.84,0,1.261,0c0.84,0,1.739,0,2.579,0c1.86,0,3.54,0.96,4.44,2.641    c0.479,0.96,0.54,2.279,0.54,3.479c0,0.6,0,1.2,0,1.74c0,3.539,0,7.14,0,10.68c0,1.8-0.061,3.239-1.5,4.619    c-1.561,1.5-3.24,1.38-5.16,1.38c-1.08,0-2.16,0-3.3,0c-0.84,0-1.56-0.239-2.34-0.66c-1.5-0.899-2.4-2.52-2.4-4.26    c0-3.359,0-6.72,0-10.079c0-0.24,0-0.42,0-0.66c0-0.06,0-0.06,0-0.12c0-0.06-0.06-0.12-0.06-0.12c0-0.06,0-0.06,0.06-0.06    c0.061,0,0.181,0,0.301,0c0.42,0,0.84,0,1.26,0c0.84,0,1.68,0,2.52,0c0.24,0,0.42,0,0.66,0c0,0,0.06,0,0.12,0    c0.12,0,0,0.12,0,0.18c0,0.181,0,0.3,0,0.42c0,0.54,0,1.08,0,1.62c0,1.08,0,2.16,0,3.24c0,1.859,0,3.659,0,5.52    c0,0.18,0.18,0.06,0.3,0.06s0.24,0,0.36,0c0.239,0,0.479,0,0.72,0c0.479,0,0.96,0,1.439,0c0.48,0,0.96,0,1.44,0    c0.12,0,0.24,0,0.36,0c0.06,0,0.119,0,0.18,0c0.06,0,0.12,0.12,0.12,0c0-0.239,0-0.42,0-0.659c0-3.42,0-6.84,0-10.26    c0-0.84,0-1.68,0-2.58c0-0.18,0-0.42,0-0.6c0-0.12,0-0.24,0-0.301c0-0.06,0.12-0.3,0-0.3c-0.48,0-0.96,0-1.44,0    c-1.26,0-3.659,0.181-4.979-0.24c-1.38-0.479-2.52-1.56-3.06-2.939c-0.301-0.78-0.301-1.56-0.301-2.34c0-1.5,0-2.94,0-4.439    c0-2.221,0-4.5,0-6.72c0-1.681,0.24-2.94,1.561-4.08c1.319-1.26,2.76-1.32,4.439-1.32c1.26,0,4.02-0.24,5.34,0.24    c1.68,0.54,2.94,1.979,3.24,3.66c0.12,0.42,0.12,1.739,0.12,3C452.333,451.811,452.333,452.591,452.333,452.891z"/>
	</g>
	<path fill="none" stroke="#FFFFFF" stroke-width="8" stroke-miterlimit="10" d="M123.333,434.876h109.991   c0,0,19.654-0.346,30.342-15.516"/>
	<line fill="none" stroke="#FFFFFF" stroke-width="8" stroke-miterlimit="10" x1="123.333" y1="499.285" x2="258" y2="499.285"/>
	
		<line fill="none" stroke="#FFFFFF" stroke-width="8" stroke-miterlimit="10" x1="339.666" y1="499.952" x2="456.333" y2="499.952"/>
	<path fill="none" stroke="#FFFFFF" stroke-width="8" stroke-miterlimit="10" d="M456.485,434.269h-98.494   c0,0-17.601-0.364-27.172-16.299"/>
</g>
<g>
</g>
<g>
</g>
<g>
</g>
<g>
</g>
<g>
</g>
<g>
</g>
</svg>